# xmcd CD database file
#
# Track frame offsets:
#	150
#	93147
#	101700
#	118637
#	130487
#	134147
#	146820
#	168682
#	202135
#	235390
#	275067
#	292120
#	324440
#
# Disc length: 4752 seconds
#
# Revision: 2
# Processed by: cddbd v1.5.2PL0 Copyright (c) Steve Scherf et al.
# Submitted via: jetAudio 7
#
DISCID=dc128e0d
DTITLE=Son House - The Legendary 1969 Rochester Sessions
DYEAR=1900
DGENRE=Blues
TTITLE0=Son's Blues
TTITLE1=Yonder Comes My Mother
TTITLE2=Shetland Pony Blues
TTITLE3=I'm So Sorry, Baby
TTITLE4=Plantation Song
TTITLE5=Mister Suzie-Q
TTITLE6=Evening Train
TTITLE7=Sundown
TTITLE8=Preachin' The Blues
TTITLE9=Empire State Express
TTITLE10=Never Mind People Grinnin' In Your Face
TTITLE11=Sun Goin' Down
TTITLE12=A Spoken Message
EXTD=
EXTT0=
EXTT1=
EXTT2=
EXTT3=
EXTT4=
EXTT5=
EXTT6=
EXTT7=
EXTT8=
EXTT9=
EXTT10=
EXTT11=
EXTT12=
PLAYORDER=
